<?xml version="1.0" encoding="UTF-8" standalone="no"?>
<!-- Created with Inkscape (http://www.inkscape.org/) -->

<svg
   width="54.14521mm"
   height="3.8378332mm"
   viewBox="0 0 54.14521 3.8378332"
   version="1.1"
   id="svg1"
   xmlns="http://www.w3.org/2000/svg"
   xmlns:svg="http://www.w3.org/2000/svg">
  <defs
     id="defs1" />
  <g
     id="layer1"
     transform="translate(-5.5009595,-22.556091)">
    <path
       d="m 7.3016021,22.55609 c -0.9413546,0 -1.8006425,0.690326 -1.8006425,1.882709 0,1.129626 0.8206682,1.955121 1.9068467,1.955121 0.357232,0 0.6806718,-0.120686 0.9654919,-0.289647 0.1689611,-0.101377 0.3089575,-0.217236 0.4151616,-0.333095 0.05793,-0.06276 0.062757,-0.135169 0.024137,-0.173789 -0.043447,-0.04345 -0.096549,-0.02896 -0.1593062,0.02896 -0.4634361,0.400679 -0.9172174,0.535848 -1.2454846,0.535848 -0.6951542,0 -1.3758261,-0.555158 -1.3758261,-1.660646 0,-0.883425 0.4537812,-1.699266 1.3420338,-1.699266 0.4103341,0 0.7530838,0.159306 0.9461822,0.497228 0.1834434,0.32344 0.1399963,0.40068 0.2799926,0.40068 0.043447,0 0.082067,-0.03862 0.082067,-0.120687 0,-0.101377 -0.033792,-0.106204 -0.033792,-0.294475 0,-0.193098 -0.00483,-0.231718 -0.043447,-0.28482 C 8.3684708,22.671949 7.7264186,22.55609 7.3016021,22.55609 Z m 2.9881909,3.635077 c 0,-0.0531 -0.03862,-0.111032 -0.130341,-0.111032 -0.139997,0 -0.2317183,-0.111031 -0.2317183,-0.294475 v -2.616483 c 0,-0.183443 0.091721,-0.294475 0.2317183,-0.294475 0.09172,0 0.130341,-0.06276 0.130341,-0.111032 0,-0.07724 -0.03862,-0.115859 -0.130341,-0.115859 -0.135169,0 -0.3041302,0.04828 -0.448954,0.04828 -0.1351689,0 -0.3234398,-0.04828 -0.4537812,-0.04828 -0.091722,0 -0.1351689,0.03862 -0.1351689,0.115859 0,0.04828 0.043447,0.111032 0.1351689,0.111032 0.1399963,0 0.231718,0.111032 0.231718,0.294475 v 2.616483 c 0,0.183444 -0.091722,0.294475 -0.231718,0.294475 -0.091722,0 -0.1351689,0.05793 -0.1351689,0.111032 0,0.07724 0.043447,0.115859 0.1351689,0.115859 0.1399963,0 0.3234398,-0.04828 0.4537812,-0.04828 0.125514,0 0.308957,0.04828 0.448954,0.04828 0.09172,0 0.130341,-0.03862 0.130341,-0.115859 z m 1.356516,-3.02199 v 0.535848 c 0,0.135169 -0.04345,0.164134 -0.197925,0.164134 h -1.279277 c -0.08207,0 -0.130342,0.04345 -0.130342,0.111031 0,0.07724 0.0531,0.115859 0.130342,0.115859 h 1.279277 c 0.154478,0 0.197925,0.03862 0.197925,0.168961 v 1.52065 c 0,0.183444 -0.09172,0.294475 -0.231718,0.294475 -0.09172,0 -0.130341,0.05793 -0.130341,0.111032 0,0.07724 0.03862,0.115859 0.130341,0.115859 0.130342,0 0.337923,-0.04828 0.453782,-0.04828 0.115859,0 0.313784,0.04828 0.448953,0.04828 0.09172,0 0.130342,-0.03862 0.130342,-0.115859 0,-0.0531 -0.03862,-0.111032 -0.130342,-0.111032 -0.139996,0 -0.231718,-0.111031 -0.231718,-0.294475 v -2.616483 c 0,-0.183443 0.09172,-0.294475 0.231718,-0.294475 0.09172,0 0.130342,-0.06276 0.130342,-0.111032 0,-0.07724 -0.03862,-0.115859 -0.130342,-0.115859 -0.135169,0 -0.333094,0.04828 -0.448953,0.04828 -0.130342,0 -0.313785,-0.04828 -0.453782,-0.04828 -0.09172,0 -0.130341,0.03862 -0.130341,0.115859 0,0.04828 0.03862,0.111032 0.130341,0.111032 0.139997,0 0.231718,0.111032 0.231718,0.294475 z m 2.997851,3.224743 c 1.042732,0 1.858572,-0.613087 1.858572,-1.882709 0,-1.202038 -0.859288,-1.955121 -1.873054,-1.955121 -1.115143,0 -1.868227,0.868942 -1.868227,1.902019 0,0.984802 0.593778,1.935811 1.882709,1.935811 z m 1.361344,-1.873054 c 0,1.173073 -0.603433,1.631681 -1.366171,1.631681 -0.820668,0 -1.375826,-0.521365 -1.375826,-1.684783 0,-0.907563 0.526193,-1.670301 1.346861,-1.670301 0.767566,0 1.395136,0.521365 1.395136,1.723403 z m 3.499905,-1.351689 v 2.05167 c 0,0.598605 -0.405506,0.91239 -1.042731,0.91239 -0.535848,0 -0.849633,-0.2462 -0.849633,-0.806185 v -2.157875 c 0,-0.183443 0.09172,-0.294475 0.231718,-0.294475 0.09172,0 0.130341,-0.06276 0.130341,-0.111032 0,-0.07724 -0.03862,-0.115859 -0.130341,-0.115859 -0.135169,0 -0.30413,0.04828 -0.448954,0.04828 -0.135169,0 -0.323439,-0.04828 -0.453781,-0.04828 -0.09172,0 -0.135169,0.03862 -0.135169,0.115859 0,0.04828 0.04345,0.111032 0.135169,0.111032 0.139996,0 0.231718,0.111032 0.231718,0.294475 v 2.1096 c 0,0.699982 0.376542,1.115143 1.245485,1.115143 0.839978,0 1.337206,-0.419989 1.337206,-1.21652 v -2.008223 c 0,-0.183443 0.09172,-0.294475 0.231718,-0.294475 0.09172,0 0.130342,-0.06276 0.130342,-0.111032 0,-0.07724 -0.03862,-0.115859 -0.130342,-0.115859 -0.125514,0 -0.2462,0.04345 -0.362059,0.04345 -0.130342,0 -0.226891,-0.04345 -0.357232,-0.04345 -0.0869,0 -0.130342,0.03862 -0.130342,0.115859 0,0.04828 0.04345,0.111032 0.130342,0.111032 0.144824,0 0.236545,0.111032 0.236545,0.294475 z m 4.277123,1.853745 c 0,-0.06759 -0.04345,-0.09172 -0.125514,-0.09172 h -0.984802 c -0.08689,0 -0.135169,0.04827 -0.135169,0.120686 0,0.06759 0.05793,0.120687 0.135169,0.120687 h 0.308958 c 0.149651,0 0.22689,0.04827 0.22689,0.212408 v 0.28482 c 0,0.212408 -0.294475,0.487574 -0.902735,0.487574 -0.748256,0 -1.361343,-0.62757 -1.361343,-1.660647 0,-1.144107 0.55033,-1.694438 1.346861,-1.694438 0.410334,0 0.753084,0.159306 0.946182,0.497228 0.183444,0.32344 0.139996,0.40068 0.279993,0.40068 0.04345,0 0.08207,-0.03862 0.08207,-0.120687 0,-0.101377 -0.03379,-0.106204 -0.03379,-0.294475 0,-0.193098 -0.0048,-0.231718 -0.04345,-0.28482 -0.236545,-0.328267 -0.878597,-0.444126 -1.303414,-0.444126 -1.066869,0 -1.815125,0.767566 -1.815125,1.950293 0,1.168246 0.936527,1.887537 1.897192,1.887537 0.391024,0 1.115143,-0.154479 1.414446,-0.53102 0.125514,-0.164134 -0.05793,-0.183444 -0.05793,-0.289648 v -0.270338 c 0,-0.183443 0.125514,-0.130341 0.125514,-0.279992 z m 1.462721,1.168245 c 0,-0.0531 -0.03862,-0.111032 -0.130342,-0.111032 -0.139996,0 -0.231718,-0.111031 -0.231718,-0.294475 v -2.616483 c 0,-0.183443 0.09172,-0.294475 0.231718,-0.294475 0.09172,0 0.130342,-0.06276 0.130342,-0.111032 0,-0.07724 -0.03862,-0.115859 -0.130342,-0.115859 -0.135169,0 -0.30413,0.04828 -0.448953,0.04828 -0.135169,0 -0.32344,-0.04828 -0.453782,-0.04828 -0.09172,0 -0.135169,0.03862 -0.135169,0.115859 0,0.04828 0.04345,0.111032 0.135169,0.111032 0.139997,0 0.231718,0.111032 0.231718,0.294475 v 2.616483 c 0,0.183444 -0.09172,0.294475 -0.231718,0.294475 -0.09172,0 -0.135169,0.05793 -0.135169,0.111032 0,0.07724 0.04345,0.115859 0.135169,0.115859 0.139997,0 0.32344,-0.04828 0.453782,-0.04828 0.125514,0 0.308957,0.04828 0.448953,0.04828 0.09172,0 0.130342,-0.03862 0.130342,-0.115859 z m 1.356516,-3.02199 v 0.535848 c 0,0.135169 -0.04345,0.164134 -0.197926,0.164134 h -1.279277 c -0.08207,0 -0.130341,0.04345 -0.130341,0.111031 0,0.07724 0.0531,0.115859 0.130341,0.115859 h 1.279277 c 0.154479,0 0.197926,0.03862 0.197926,0.168961 v 1.52065 c 0,0.183444 -0.09172,0.294475 -0.231718,0.294475 -0.09172,0 -0.130342,0.05793 -0.130342,0.111032 0,0.07724 0.03862,0.115859 0.130342,0.115859 0.130341,0 0.337922,-0.04828 0.453781,-0.04828 0.115859,0 0.313785,0.04828 0.448954,0.04828 0.09172,0 0.130341,-0.03862 0.130341,-0.115859 0,-0.0531 -0.03862,-0.111032 -0.130341,-0.111032 -0.139996,0 -0.231718,-0.111031 -0.231718,-0.294475 v -2.616483 c 0,-0.183443 0.09172,-0.294475 0.231718,-0.294475 0.09172,0 0.130341,-0.06276 0.130341,-0.111032 0,-0.07724 -0.03862,-0.115859 -0.130341,-0.115859 -0.135169,0 -0.333095,0.04828 -0.448954,0.04828 -0.130341,0 -0.313785,-0.04828 -0.453781,-0.04828 -0.09172,0 -0.130342,0.03862 -0.130342,0.115859 0,0.04828 0.03862,0.111032 0.130342,0.111032 0.139996,0 0.231718,0.111032 0.231718,0.294475 z m 1.361343,0.883425 0.106204,-0.85446 c 0.01931,-0.144824 0.125514,-0.642052 -0.168961,-0.642052 -0.275165,0 -0.159306,0.516538 -0.139996,0.651707 l 0.106204,0.844805 z m 1.293753,2.341318 c 0.695155,0 1.19721,-0.391024 1.19721,-0.960664 0,-0.516539 -0.20758,-0.820668 -0.85446,-1.284105 L 29.34376,23.965708 c -0.284821,-0.207581 -0.545503,-0.376542 -0.545503,-0.64688 0,-0.26551 0.294475,-0.51171 0.671017,-0.51171 0.299302,0 0.497228,0.164133 0.559985,0.362059 0.02414,0.07241 -0.0048,0.279993 0.139996,0.279993 0.0869,0 0.09172,-0.07724 0.09172,-0.135169 0,-0.03862 -0.0048,-0.08689 -0.0048,-0.125514 0,-0.03862 0.0048,-0.09172 0.0048,-0.125514 0.0048,-0.144824 -0.0097,-0.193098 -0.07241,-0.255855 -0.183443,-0.193099 -0.477918,-0.251028 -0.728946,-0.251028 -0.632398,0 -1.062042,0.395851 -1.062042,0.89308 0,0.391024 0.193099,0.56964 0.64688,0.897907 l 0.357232,0.260683 c 0.444126,0.32344 0.651707,0.526193 0.651707,0.902735 0,0.366887 -0.337922,0.642052 -0.743429,0.642052 -0.139996,0 -0.28482,-0.03379 -0.395851,-0.08689 -0.149652,-0.07724 -0.226891,-0.173789 -0.265511,-0.255855 -0.101376,-0.207581 -0.06758,-0.511711 -0.236545,-0.511711 -0.06276,0 -0.09655,0.03862 -0.09655,0.115859 0,0.07241 0.02414,0.178616 0.02414,0.251028 0,0.101376 -0.01931,0.202753 -0.01931,0.30413 0,0.222063 0.468264,0.424816 0.936527,0.424816 z m 5.53226,-1.288932 c 0,0.178616 -0.06759,0.178616 -0.154479,0.06276 l -1.790988,-2.37511 c -0.09172,-0.120686 -0.106204,-0.144824 -0.159306,-0.144824 -0.08689,0 -0.08689,0.03862 -0.222063,0.03862 -0.07241,0 -0.173789,-0.03862 -0.226891,-0.03862 -0.09172,0 -0.135169,0.03862 -0.135169,0.115859 0,0.04828 0.04345,0.111032 0.135169,0.111032 0.139997,0 0.279993,0.115859 0.279993,0.299302 v 2.611656 c 0,0.212408 -0.09655,0.294475 -0.279993,0.294475 -0.09172,0 -0.135169,0.05793 -0.135169,0.111032 0,0.07724 0.04828,0.115859 0.135169,0.115859 0.139997,0 0.260683,-0.03862 0.391025,-0.03862 0.125514,0 0.193098,0.03862 0.333094,0.03862 0.09172,0 0.135169,-0.03862 0.135169,-0.115859 0,-0.0531 -0.04345,-0.111032 -0.135169,-0.111032 -0.139996,0 -0.231718,-0.08207 -0.231718,-0.294475 v -2.230286 c 0,-0.159306 0.05793,-0.173789 0.139997,-0.06276 l 2.037188,2.732342 c 0.09172,0.125514 0.111031,0.139996 0.149651,0.139996 0.03379,0 0.07724,-0.02896 0.07724,-0.08207 0,-0.154479 -0.130341,-0.289648 -0.130341,-0.584123 v -2.539244 c 0,-0.202753 0.07724,-0.294475 0.236545,-0.294475 0.08689,0 0.130342,-0.06276 0.130342,-0.111032 0,-0.07724 -0.04345,-0.115859 -0.130342,-0.115859 -0.144823,0 -0.20758,0.03862 -0.333094,0.03862 -0.135169,0 -0.202754,-0.03862 -0.347577,-0.03862 -0.08207,0 -0.130342,0.03862 -0.130342,0.115859 0,0.04828 0.03862,0.111032 0.130342,0.111032 0.139996,0 0.231718,0.08689 0.231718,0.294475 z m 2.799919,-2.457177 c 0,0 -1.655818,0 -1.78616,0 -0.09172,0 -0.135169,0.03862 -0.135169,0.115859 0,0.04828 0.04345,0.111032 0.135169,0.111032 0.139996,0 0.231718,0.111032 0.231718,0.294475 v 2.616483 c 0,0.183444 -0.09172,0.294475 -0.231718,0.294475 -0.09172,0 -0.135169,0.05793 -0.135169,0.111032 0,0.07724 0.04345,0.115859 0.135169,0.115859 0.139996,0 2.16753,0 2.16753,0 0.135168,0 0.164133,-0.02414 0.159306,-0.135169 l -0.0097,-0.381369 c -0.0048,-0.106204 -0.05793,-0.154479 -0.125514,-0.154479 -0.07241,0 -0.115859,0.04345 -0.125514,0.125514 -0.02414,0.202753 -0.106204,0.30413 -0.318612,0.30413 h -0.878598 c -0.154479,0 -0.197926,-0.03379 -0.197926,-0.168961 v -1.597889 c 0,-0.130342 0.04345,-0.164134 0.197926,-0.164134 h 0.593777 c 0.212409,0 0.284821,0.101377 0.284821,0.222063 0,0.08207 0.03862,0.130342 0.111031,0.130342 0.183444,0 0.07724,-0.265511 0.07724,-0.439299 0,-0.164134 0.106204,-0.453782 -0.07724,-0.453782 -0.07241,0 -0.111031,0.04828 -0.111031,0.130342 0,0.120686 -0.07241,0.183443 -0.284821,0.183443 h -0.593777 c -0.154479,0 -0.197926,-0.03379 -0.197926,-0.168961 v -0.690326 c 0,-0.135169 0.04345,-0.168962 0.197926,-0.168962 h 0.632397 c 0.202753,0 0.246201,0.01931 0.333095,0.241373 0.03862,0.101377 0.07241,0.120687 0.135169,0.120687 0.03862,0 0.09172,-0.04345 0.08207,-0.120687 l -0.02414,-0.255855 C 37.811063,22.681604 37.767613,22.647811 37.589,22.647811 Z m 1.641334,3.746109 c 0.695154,0 1.19721,-0.391024 1.19721,-0.960664 0,-0.516539 -0.207581,-0.820668 -0.85446,-1.284105 l -0.255856,-0.183443 c -0.28482,-0.207581 -0.545503,-0.376542 -0.545503,-0.64688 0,-0.26551 0.294475,-0.51171 0.671017,-0.51171 0.299303,0 0.497229,0.164133 0.559986,0.362059 0.02414,0.07241 -0.0048,0.279993 0.139996,0.279993 0.08689,0 0.09172,-0.07724 0.09172,-0.135169 0,-0.03862 -0.0048,-0.08689 -0.0048,-0.125514 0,-0.03862 0.0048,-0.09172 0.0048,-0.125514 0.0048,-0.144824 -0.0097,-0.193098 -0.07241,-0.255855 -0.183444,-0.193099 -0.477919,-0.251028 -0.728947,-0.251028 -0.632397,0 -1.062041,0.395851 -1.062041,0.89308 0,0.391024 0.193099,0.56964 0.64688,0.897907 l 0.357232,0.260683 c 0.444126,0.32344 0.651707,0.526193 0.651707,0.902735 0,0.366887 -0.337922,0.642052 -0.743429,0.642052 -0.139996,0 -0.28482,-0.03379 -0.395852,-0.08689 -0.149651,-0.07724 -0.22689,-0.173789 -0.26551,-0.255855 -0.101377,-0.207581 -0.06758,-0.511711 -0.236545,-0.511711 -0.06276,0 -0.09655,0.03862 -0.09655,0.115859 0,0.07241 0.02414,0.178616 0.02414,0.251028 0,0.101376 -0.01931,0.202753 -0.01931,0.30413 0,0.222063 0.468263,0.424816 0.936527,0.424816 z m 2.746821,-0.60826 v -2.602001 c 0,-0.193098 0.101377,-0.28482 0.294475,-0.28482 h 0.135169 c 0.135169,0 0.255855,0.164134 0.318612,0.34275 0.01931,0.06276 0.06759,0.08689 0.111032,0.08207 0.03862,-0.0048 0.07724,-0.02896 0.07724,-0.125514 0,-0.188271 -0.05793,-0.434472 -0.08689,-0.473091 -0.03379,-0.05793 -0.07241,-0.07724 -0.217236,-0.07724 h -1.704093 c -0.144824,0 -0.183444,0.01931 -0.217236,0.07724 -0.02896,0.03862 -0.08689,0.28482 -0.08689,0.473091 0,0.09655 0.03862,0.120686 0.07724,0.125514 0.04345,0.0048 0.09172,-0.01931 0.111032,-0.08207 0.06276,-0.178616 0.183443,-0.34275 0.318612,-0.34275 h 0.135169 c 0.193099,0 0.294475,0.09172 0.294475,0.28482 v 2.602001 c 0,0.183444 -0.106204,0.294475 -0.231718,0.294475 -0.09172,0 -0.130341,0.05793 -0.130341,0.111032 0,0.07724 0.04345,0.115859 0.130341,0.115859 0.139996,0 0.32344,-0.04828 0.453781,-0.04828 0.125514,0 0.308958,0.04828 0.448954,0.04828 0.09172,0 0.130342,-0.03862 0.130342,-0.115859 0,-0.0531 -0.03862,-0.111032 -0.130342,-0.111032 -0.125514,0 -0.231718,-0.111031 -0.231718,-0.294475 z m 3.625411,0.405507 c 0,-0.0531 -0.03862,-0.111032 -0.130342,-0.111032 -0.139996,0 -0.231718,-0.111031 -0.231718,-0.294475 v -2.616483 c 0,-0.183443 0.09172,-0.294475 0.231718,-0.294475 0.09172,0 0.130342,-0.06276 0.130342,-0.111032 0,-0.07724 -0.03862,-0.115859 -0.130342,-0.115859 -0.135168,0 -0.30413,0.04828 -0.448953,0.04828 -0.135169,0 -0.32344,-0.04828 -0.453782,-0.04828 -0.09172,0 -0.135168,0.03862 -0.135168,0.115859 0,0.04828 0.04345,0.111032 0.135168,0.111032 0.139997,0 0.231718,0.111032 0.231718,0.294475 v 2.616483 c 0,0.183444 -0.09172,0.294475 -0.231718,0.294475 -0.09172,0 -0.135168,0.05793 -0.135168,0.111032 0,0.07724 0.04345,0.115859 0.135168,0.115859 0.139997,0 0.32344,-0.04828 0.453782,-0.04828 0.125514,0 0.308957,0.04828 0.448953,0.04828 0.09172,0 0.130342,-0.03862 0.130342,-0.115859 z m 1.356516,-3.02199 v 0.535848 c 0,0.135169 -0.04345,0.164134 -0.197926,0.164134 h -1.279277 c -0.08207,0 -0.130341,0.04345 -0.130341,0.111031 0,0.07724 0.0531,0.115859 0.130341,0.115859 H 46.7612 c 0.154479,0 0.197926,0.03862 0.197926,0.168961 v 1.52065 c 0,0.183444 -0.09172,0.294475 -0.231718,0.294475 -0.09172,0 -0.130341,0.05793 -0.130341,0.111032 0,0.07724 0.03862,0.115859 0.130341,0.115859 0.130341,0 0.337922,-0.04828 0.453781,-0.04828 0.115859,0 0.313785,0.04828 0.448954,0.04828 0.09172,0 0.130341,-0.03862 0.130341,-0.115859 0,-0.0531 -0.03862,-0.111032 -0.130341,-0.111032 -0.139996,0 -0.231718,-0.111031 -0.231718,-0.294475 v -2.616483 c 0,-0.183443 0.09172,-0.294475 0.231718,-0.294475 0.09172,0 0.130341,-0.06276 0.130341,-0.111032 0,-0.07724 -0.03862,-0.115859 -0.130341,-0.115859 -0.135169,0 -0.333095,0.04828 -0.448954,0.04828 -0.130341,0 -0.313785,-0.04828 -0.453781,-0.04828 -0.09172,0 -0.130341,0.03862 -0.130341,0.115859 0,0.04828 0.03862,0.111032 0.130341,0.111032 0.139996,0 0.231718,0.111032 0.231718,0.294475 z m 2.997852,3.224743 c 1.042731,0 1.858572,-0.613087 1.858572,-1.882709 0,-1.202038 -0.859288,-1.955121 -1.873055,-1.955121 -1.115143,0 -1.868226,0.868942 -1.868226,1.902019 0,0.984802 0.593777,1.935811 1.882709,1.935811 z m 1.361344,-1.873054 c 0,1.173073 -0.603433,1.631681 -1.366172,1.631681 -0.820668,0 -1.375826,-0.521365 -1.375826,-1.684783 0,-0.907563 0.526193,-1.670301 1.346862,-1.670301 0.767566,0 1.395136,0.521365 1.395136,1.723403 z m 2.051665,1.264794 v -2.602001 c 0,-0.193098 0.101377,-0.28482 0.294475,-0.28482 h 0.135169 c 0.135169,0 0.255855,0.164134 0.318612,0.34275 0.01931,0.06276 0.06759,0.08689 0.111032,0.08207 0.03862,-0.0048 0.07724,-0.02896 0.07724,-0.125514 0,-0.188271 -0.05793,-0.434472 -0.08689,-0.473091 -0.03379,-0.05793 -0.07241,-0.07724 -0.217236,-0.07724 h -1.704093 c -0.144824,0 -0.183444,0.01931 -0.217236,0.07724 -0.02896,0.03862 -0.08689,0.28482 -0.08689,0.473091 0,0.09655 0.03862,0.120686 0.07724,0.125514 0.04345,0.0048 0.09172,-0.01931 0.111032,-0.08207 0.06276,-0.178616 0.183443,-0.34275 0.318612,-0.34275 h 0.135169 c 0.193098,0 0.294475,0.09172 0.294475,0.28482 v 2.602001 c 0,0.183444 -0.106204,0.294475 -0.231718,0.294475 -0.09172,0 -0.130341,0.05793 -0.130341,0.111032 0,0.07724 0.04345,0.115859 0.130341,0.115859 0.139996,0 0.32344,-0.04828 0.453781,-0.04828 0.125514,0 0.308958,0.04828 0.448954,0.04828 0.09172,0 0.130341,-0.03862 0.130341,-0.115859 0,-0.0531 -0.03862,-0.111032 -0.130341,-0.111032 -0.125514,0 -0.231718,-0.111031 -0.231718,-0.294475 z m 3.031639,-3.137849 c 0,0 -1.655818,0 -1.78616,0 -0.09172,0 -0.135169,0.03862 -0.135169,0.115859 0,0.04828 0.04345,0.111032 0.135169,0.111032 0.139997,0 0.231718,0.111032 0.231718,0.294475 v 2.616483 c 0,0.183444 -0.09172,0.294475 -0.231718,0.294475 -0.09172,0 -0.135169,0.05793 -0.135169,0.111032 0,0.07724 0.04345,0.115859 0.135169,0.115859 0.139997,0 2.16753,0 2.16753,0 0.135168,0 0.164133,-0.02414 0.159306,-0.135169 l -0.0097,-0.381369 c -0.0048,-0.106204 -0.05793,-0.154479 -0.125514,-0.154479 -0.07241,0 -0.115859,0.04345 -0.125514,0.125514 -0.02414,0.202753 -0.106204,0.30413 -0.318612,0.30413 h -0.878598 c -0.154479,0 -0.197926,-0.03379 -0.197926,-0.168961 v -1.597889 c 0,-0.130342 0.04345,-0.164134 0.197926,-0.164134 h 0.593777 c 0.212409,0 0.284821,0.101377 0.284821,0.222063 0,0.08207 0.03862,0.130342 0.111031,0.130342 0.183444,0 0.07724,-0.265511 0.07724,-0.439299 0,-0.164134 0.106204,-0.453782 -0.07724,-0.453782 -0.07241,0 -0.111031,0.04828 -0.111031,0.130342 0,0.120686 -0.07241,0.183443 -0.284821,0.183443 h -0.593777 c -0.154479,0 -0.197926,-0.03379 -0.197926,-0.168961 v -0.690326 c 0,-0.135169 0.04345,-0.168962 0.197926,-0.168962 h 0.632397 c 0.202753,0 0.246201,0.01931 0.333095,0.241373 0.03862,0.101377 0.07241,0.120687 0.135169,0.120687 0.03862,0 0.09172,-0.04345 0.08207,-0.120687 l -0.02414,-0.255855 c -0.01931,-0.183443 -0.06276,-0.217236 -0.241373,-0.217236 z m 1.58823,3.248881 v -2.727515 c 0,-0.183443 0.09172,-0.294475 0.231718,-0.294475 0.09172,0 0.130342,-0.06276 0.130342,-0.111032 0,-0.07724 -0.03862,-0.115859 -0.130342,-0.115859 -0.135169,0 -0.30413,0.04828 -0.448954,0.04828 -0.135169,0 -0.323439,-0.04828 -0.453781,-0.04828 -0.09172,0 -0.135169,0.03862 -0.135169,0.115859 0,0.04828 0.04345,0.111032 0.135169,0.111032 0.139996,0 0.231718,0.115859 0.231718,0.299302 v 2.611656 c 0,0.183444 -0.09172,0.294475 -0.231718,0.294475 -0.09172,0 -0.135169,0.05793 -0.135169,0.111032 0,0.07724 0.04345,0.115859 0.135169,0.115859 0.139996,0 2.16753,0 2.16753,0 0.135168,0 0.164133,-0.02414 0.159306,-0.135169 l -0.0097,-0.381369 c -0.0048,-0.106204 -0.05793,-0.154479 -0.125514,-0.154479 -0.07241,0 -0.115859,0.04345 -0.125514,0.125514 -0.02414,0.202753 -0.106204,0.30413 -0.318612,0.30413 h -0.878598 c -0.154479,0 -0.197926,-0.03379 -0.197926,-0.168961 z"
       id="text1"
       style="font-size:4.82746px;font-family:PoorRichardOpti;-inkscape-font-specification:PoorRichardOpti;fill:#33435b;fill-opacity:1;stroke-width:0.402288"
       aria-label="CHOUGH'S NEST HOTEL" />
  </g>
</svg>
